<svg width="326" height="92" viewBox="0 0 326 92" fill="none" xmlns="http://www.w3.org/2000/svg">
<g filter="url(#filter0_f_401_1137)">
<path fill-rule="evenodd" clip-rule="evenodd" d="M46.3124 16.4115C29.8532 16.4115 16.5155 29.6616 16.5155 46C16.5155 62.3384 29.8532 75.5884 46.3124 75.5884C62.7717 75.5884 76.1094 62.3384 76.1094 46C76.1094 29.6616 62.7717 16.4115 46.3124 16.4115ZM10.4844 46C10.4844 26.3447 26.528 10.416 46.3124 10.416C66.0969 10.416 82.1405 26.3447 82.1405 46C82.1405 65.6553 66.0969 81.584 46.3124 81.584C26.528 81.584 10.4844 65.6553 10.4844 46Z" fill="#814BF6"/>
</g>
<path fill-rule="evenodd" clip-rule="evenodd" d="M46.3124 16.4115C29.8532 16.4115 16.5155 29.6616 16.5155 46C16.5155 62.3384 29.8532 75.5884 46.3124 75.5884C62.7717 75.5884 76.1094 62.3384 76.1094 46C76.1094 29.6616 62.7717 16.4115 46.3124 16.4115ZM10.4844 46C10.4844 26.3447 26.528 10.416 46.3124 10.416C66.0969 10.416 82.1405 26.3447 82.1405 46C82.1405 65.6553 66.0969 81.584 46.3124 81.584C26.528 81.584 10.4844 65.6553 10.4844 46Z" fill="#814BF6"/>
<g filter="url(#filter1_f_401_1137)">
<path fill-rule="evenodd" clip-rule="evenodd" d="M46.3124 28.8705C36.7821 28.8705 29.0614 36.5423 29.0614 45.9996C29.0614 55.4568 36.7821 63.1286 46.3124 63.1286C55.8427 63.1286 63.5634 55.4568 63.5634 45.9996C63.5634 36.5423 55.8427 28.8705 46.3124 28.8705ZM23.0303 45.9996C23.0303 33.2254 33.4569 22.875 46.3124 22.875C59.1679 22.875 69.5945 33.2254 69.5945 45.9996C69.5945 58.7737 59.1679 69.1241 46.3124 69.1241C33.4569 69.1241 23.0303 58.7737 23.0303 45.9996Z" fill="#00BCFF"/>
</g>
<path fill-rule="evenodd" clip-rule="evenodd" d="M46.2665 28.8256C36.7362 28.8256 29.0155 36.4973 29.0155 45.9546C29.0155 55.4119 36.7362 63.0837 46.2665 63.0837C55.7968 63.0837 63.5175 55.4119 63.5175 45.9546C63.5175 36.4973 55.7968 28.8256 46.2665 28.8256ZM22.9844 45.9546C22.9844 33.1805 33.411 22.8301 46.2665 22.8301C59.122 22.8301 69.5486 33.1805 69.5486 45.9546C69.5486 58.7288 59.122 69.0792 46.2665 69.0792C33.411 69.0792 22.9844 58.7288 22.9844 45.9546Z" fill="#00BCFF"/>
<path d="M111.812 55.7948C109.412 55.7948 107.4 55.3231 105.775 54.3797C104.175 53.4114 102.975 52.1203 102.175 50.5065C101.4 48.8679 101.012 47.0059 101.012 44.9203C101.012 42.9093 101.412 41.0845 102.212 39.4459C103.012 37.7824 104.262 36.4541 105.962 35.461C107.662 34.4679 109.8 33.9714 112.375 33.9714C113.425 33.9714 114.512 34.1079 115.637 34.381C116.762 34.6541 117.662 35.0141 118.337 35.461L117.1 39.4086C115.6 38.5396 114.025 38.1052 112.375 38.1052C110.6 38.1052 109.225 38.701 108.25 39.8927C107.3 41.0596 106.825 42.7231 106.825 44.8831C106.825 47.0431 107.262 48.719 108.137 49.9107C109.012 51.1024 110.237 51.6983 111.812 51.6983C112.862 51.6983 113.812 51.5245 114.662 51.1769C115.537 50.8045 116.475 50.2831 117.475 49.6127L119.125 53.2252C118.225 53.97 117.137 54.5907 115.862 55.0872C114.612 55.559 113.262 55.7948 111.812 55.7948ZM132.247 55.7948C129.897 55.7948 127.909 55.3231 126.284 54.3797C124.659 53.4362 123.447 52.1452 122.647 50.5065C121.847 48.8679 121.447 47.0059 121.447 44.9203C121.447 42.7852 121.847 40.8983 122.647 39.2596C123.447 37.5962 124.659 36.3052 126.284 35.3865C127.909 34.4431 129.897 33.9714 132.247 33.9714C134.597 33.9714 136.584 34.4679 138.209 35.461C139.834 36.4541 141.047 37.7824 141.847 39.4459C142.672 41.0845 143.084 42.8845 143.084 44.8459C143.084 46.8072 142.672 48.6196 141.847 50.2831C141.047 51.9465 139.834 53.2872 138.209 54.3052C136.584 55.2983 134.597 55.7948 132.247 55.7948ZM132.284 51.6983C135.609 51.6983 137.272 49.4265 137.272 44.8831C137.272 40.3645 135.609 38.1052 132.284 38.1052C128.934 38.1052 127.259 40.3645 127.259 44.8831C127.259 49.4265 128.934 51.6983 132.284 51.6983ZM166.715 25.5176V55.3107H162.44L161.878 53.7093C160.103 55.0996 158.09 55.7948 155.84 55.7948C153.94 55.7948 152.265 55.3852 150.815 54.5659C149.365 53.7465 148.228 52.53 147.403 50.9162C146.603 49.2776 146.203 47.3038 146.203 44.9948C146.203 41.1714 147.265 38.3783 149.39 36.6155C151.54 34.8528 154.39 33.9714 157.94 33.9714C159.14 33.9714 160.153 34.0831 160.978 34.3065V25.5176H166.715ZM152.015 44.9948C152.015 47.4031 152.428 49.1162 153.253 50.1341C154.078 51.1521 155.14 51.661 156.44 51.661C157.34 51.661 158.14 51.5617 158.84 51.3631C159.565 51.1397 160.278 50.7921 160.978 50.3203V38.4403C160.178 38.2169 159.278 38.1052 158.278 38.1052C154.103 38.1052 152.015 40.4017 152.015 44.9948ZM182.198 51.6983C183.398 51.6983 184.498 51.4748 185.498 51.0279C186.498 50.581 187.573 49.9231 188.723 49.0541L190.373 52.6665C189.123 53.7341 187.848 54.5286 186.548 55.05C185.273 55.5465 183.823 55.7948 182.198 55.7948C179.798 55.7948 177.786 55.3231 176.161 54.3797C174.561 53.4114 173.361 52.1203 172.561 50.5065C171.786 48.8679 171.398 47.0059 171.398 44.9203C171.398 42.7852 171.798 40.8983 172.598 39.2596C173.398 37.5962 174.598 36.3052 176.198 35.3865C177.823 34.4431 179.823 33.9714 182.198 33.9714C184.923 33.9714 187.023 34.7162 188.498 36.2059C189.998 37.6955 190.761 39.7934 190.786 42.4996C190.786 43.4928 190.636 44.4983 190.336 45.5162H177.061C177.136 47.5521 177.586 49.0914 178.411 50.1341C179.236 51.1769 180.498 51.6983 182.198 51.6983ZM181.861 37.8072C179.486 37.8072 177.986 39.1355 177.361 41.7921H185.198C185.223 41.6679 185.236 41.4941 185.236 41.2707C185.211 40.1534 184.886 39.2969 184.261 38.701C183.661 38.1052 182.861 37.8072 181.861 37.8072ZM201.383 55.7948C199.983 55.7948 198.633 55.6583 197.333 55.3852C196.033 55.1121 194.895 54.7521 193.92 54.3052L195.083 50.3576C197.308 51.2514 199.383 51.6983 201.308 51.6983C202.458 51.6983 203.383 51.5245 204.083 51.1769C204.808 50.8045 205.17 50.2459 205.17 49.501C205.17 48.8803 204.833 48.3714 204.158 47.9741C203.508 47.5769 202.47 47.13 201.045 46.6334C199.645 46.1369 198.508 45.6776 197.633 45.2555C196.758 44.8086 195.995 44.2128 195.345 43.4679C194.72 42.6983 194.408 41.7548 194.408 40.6376C194.408 38.4528 195.208 36.8017 196.808 35.6845C198.408 34.5424 200.583 33.9714 203.333 33.9714C204.483 33.9714 205.645 34.0955 206.82 34.3438C207.995 34.5672 209.033 34.89 209.933 35.3121L208.733 39.2969C206.933 38.5024 205.183 38.1052 203.483 38.1052C202.408 38.1052 201.57 38.2665 200.97 38.5893C200.37 38.8872 200.07 39.3465 200.07 39.9672C200.07 40.5879 200.383 41.0845 201.008 41.4569C201.633 41.8045 202.62 42.2017 203.97 42.6486C205.37 43.0955 206.533 43.5424 207.458 43.9893C208.383 44.4362 209.17 45.0817 209.82 45.9259C210.495 46.77 210.833 47.8376 210.833 49.1286C210.833 51.2141 210.02 52.8527 208.395 54.0445C206.77 55.2114 204.433 55.7948 201.383 55.7948ZM226.401 33.9714C228.276 33.9714 229.939 34.4059 231.389 35.2748C232.839 36.119 233.964 37.3727 234.764 39.0362C235.589 40.6748 236.001 42.6362 236.001 44.9203C236.001 48.6445 234.926 51.3879 232.776 53.1507C230.651 54.9134 227.826 55.7948 224.301 55.7948C223.101 55.7948 222.089 55.6831 221.264 55.4597V63.9879H215.526V34.4555H219.801L220.364 36.0196C222.164 34.6541 224.176 33.9714 226.401 33.9714ZM223.926 51.6983C228.126 51.6983 230.226 49.3893 230.226 44.7714C230.226 42.3631 229.801 40.65 228.951 39.6321C228.126 38.6141 227.064 38.1052 225.764 38.1052C224.864 38.1052 224.064 38.2169 223.364 38.4403C222.664 38.639 221.964 38.9741 221.264 39.4459V51.3631C222.214 51.5865 223.101 51.6983 223.926 51.6983ZM252.684 33.9714C255.334 33.9714 257.159 34.6665 258.159 36.0569C259.159 37.4224 259.659 39.421 259.659 42.0527V55.3107H253.922V42.7231C253.922 41.0348 253.697 39.8555 253.247 39.1852C252.822 38.5148 252.022 38.1796 250.847 38.1796C249.422 38.1796 247.959 38.701 246.459 39.7438V55.3107H240.722V25.5176H246.459V35.7962C248.584 34.5796 250.659 33.9714 252.684 33.9714ZM274.959 51.6983C276.159 51.6983 277.259 51.4748 278.259 51.0279C279.259 50.581 280.334 49.9231 281.484 49.0541L283.134 52.6665C281.884 53.7341 280.609 54.5286 279.309 55.05C278.034 55.5465 276.584 55.7948 274.959 55.7948C272.559 55.7948 270.547 55.3231 268.922 54.3797C267.322 53.4114 266.122 52.1203 265.322 50.5065C264.547 48.8679 264.159 47.0059 264.159 44.9203C264.159 42.7852 264.559 40.8983 265.359 39.2596C266.159 37.5962 267.359 36.3052 268.959 35.3865C270.584 34.4431 272.584 33.9714 274.959 33.9714C277.684 33.9714 279.784 34.7162 281.259 36.2059C282.759 37.6955 283.522 39.7934 283.547 42.4996C283.547 43.4928 283.397 44.4983 283.097 45.5162H269.822C269.897 47.5521 270.347 49.0914 271.172 50.1341C271.997 51.1769 273.259 51.6983 274.959 51.6983ZM274.622 37.8072C272.247 37.8072 270.747 39.1355 270.122 41.7921H277.959C277.984 41.6679 277.997 41.4941 277.997 41.2707C277.972 40.1534 277.647 39.2969 277.022 38.701C276.422 38.1052 275.622 37.8072 274.622 37.8072ZM301.043 39.4459C299.768 39.4459 298.593 39.5452 297.518 39.7438C296.468 39.9424 295.293 40.3396 293.993 40.9355V55.3107H288.256V34.4555H292.531L293.431 36.9879C294.731 35.8955 295.981 35.1259 297.181 34.679C298.406 34.2321 299.693 34.0086 301.043 34.0086V39.4459ZM314.511 51.6983C315.711 51.6983 316.811 51.4748 317.811 51.0279C318.811 50.581 319.886 49.9231 321.036 49.0541L322.686 52.6665C321.436 53.7341 320.161 54.5286 318.861 55.05C317.586 55.5465 316.136 55.7948 314.511 55.7948C312.111 55.7948 310.098 55.3231 308.473 54.3797C306.873 53.4114 305.673 52.1203 304.873 50.5065C304.098 48.8679 303.711 47.0059 303.711 44.9203C303.711 42.7852 304.111 40.8983 304.911 39.2596C305.711 37.5962 306.911 36.3052 308.511 35.3865C310.136 34.4431 312.136 33.9714 314.511 33.9714C317.236 33.9714 319.336 34.7162 320.811 36.2059C322.311 37.6955 323.073 39.7934 323.098 42.4996C323.098 43.4928 322.948 44.4983 322.648 45.5162H309.373C309.448 47.5521 309.898 49.0914 310.723 50.1341C311.548 51.1769 312.811 51.6983 314.511 51.6983ZM314.173 37.8072C311.798 37.8072 310.298 39.1355 309.673 41.7921H317.511C317.536 41.6679 317.548 41.4941 317.548 41.2707C317.523 40.1534 317.198 39.2969 316.573 38.701C315.973 38.1052 315.173 37.8072 314.173 37.8072Z" fill="white"/>
<defs>
<filter id="filter0_f_401_1137" x="0.484375" y="0.416016" width="91.6562" height="91.168" filterUnits="userSpaceOnUse" color-interpolation-filters="sRGB">
<feFlood flood-opacity="0" result="BackgroundImageFix"/>
<feBlend mode="normal" in="SourceGraphic" in2="BackgroundImageFix" result="shape"/>
<feGaussianBlur stdDeviation="5" result="effect1_foregroundBlur_401_1137"/>
</filter>
<filter id="filter1_f_401_1137" x="13.0303" y="12.875" width="66.5645" height="66.25" filterUnits="userSpaceOnUse" color-interpolation-filters="sRGB">
<feFlood flood-opacity="0" result="BackgroundImageFix"/>
<feBlend mode="normal" in="SourceGraphic" in2="BackgroundImageFix" result="shape"/>
<feGaussianBlur stdDeviation="5" result="effect1_foregroundBlur_401_1137"/>
</filter>
</defs>
</svg>
