<svg id="Layer_1" data-name="Layer 1" xmlns="http://www.w3.org/2000/svg" xmlns:xlink="http://www.w3.org/1999/xlink" viewBox="0 0 759.76 294.36"><defs><style>.cls-1{fill:url(#linear-gradient);}.cls-2{fill:url(#linear-gradient-2);}.cls-3{fill:url(#linear-gradient-3);}.cls-4{fill:url(#linear-gradient-4);}.cls-5{fill:url(#linear-gradient-5);}.cls-6{fill:#fff;}</style><linearGradient id="linear-gradient" x1="157.25" y1="78.76" x2="157.25" y2="172.24" gradientUnits="userSpaceOnUse"><stop offset="0.34" stop-color="#6ddeb4"/><stop offset="0.49" stop-color="#5ccecc"/><stop offset="0.76" stop-color="#41b5f1"/><stop offset="0.9" stop-color="#37abff"/></linearGradient><linearGradient id="linear-gradient-2" x1="88.1" y1="138.76" x2="86.9" y2="104.62" gradientUnits="userSpaceOnUse"><stop offset="0.1" stop-color="#6ddeb4" stop-opacity="0"/><stop offset="0.66" stop-color="#6ddeb4"/></linearGradient><linearGradient id="linear-gradient-3" x1="282.31" y1="138.78" x2="281.11" y2="104.62" gradientTransform="matrix(-1, 0, 0, 1, 508.7, 0)" xlink:href="#linear-gradient-2"/><linearGradient id="linear-gradient-4" x1="157.25" y1="62.69" x2="157.25" y2="243.97" gradientUnits="userSpaceOnUse"><stop offset="0" stop-color="#49039c"/><stop offset="1" stop-color="#478de4"/></linearGradient><linearGradient id="linear-gradient-5" x1="157.25" y1="62.69" x2="157.25" y2="243.97" xlink:href="#linear-gradient-4"/></defs><path class="cls-1" d="M233.44,97.27l-35.19,35.19L165,165.77a10.9,10.9,0,0,1-15.39,0l-68.5-68.5L96.45,81.88l15.39,15.39,1.52,1.52,15.46,15.46,28.43,28.43,28.43-28.43,15.46-15.43,1.53-1.55,15.38-15.39Z"/><path class="cls-2" d="M99.82,116a63.7,63.7,0,0,0-6.58,18.14c-.34,1.73-.64,3.46-.82,5.24L81.06,128.05a21.75,21.75,0,0,1,0-30.78Z"/><path class="cls-3" d="M214.66,116.05a63.7,63.7,0,0,1,6.58,18.14c.34,1.73.64,3.46.82,5.24l11.36-11.36a21.76,21.76,0,0,0,0-30.8Z"/><path class="cls-4" d="M201.14,98.82l-15.46,15.43a43.39,43.39,0,0,0-56.86,0L113.36,98.79a65.37,65.37,0,0,1,87.78,0Z"/><path class="cls-5" d="M222.56,147.19a65.31,65.31,0,0,1-130.62,0,62.39,62.39,0,0,1,.48-7.78c.18-1.78.48-3.51.82-5.24A63.7,63.7,0,0,1,99.82,116l16.46,16.46a43.59,43.59,0,0,0-2.58,14.7,42.91,42.91,0,0,0,3.44,16.94,43.46,43.46,0,0,0,31.64,25.77,42,42,0,0,0,7.52.79c.31,0,.63,0,.95,0s.66,0,1,0a42.57,42.57,0,0,0,16-3.39,43.6,43.6,0,0,0,23.15-23.17,42.91,42.91,0,0,0,3.44-16.94,44.39,44.39,0,0,0-2.55-14.73l16.41-16.41a63.35,63.35,0,0,1,6.58,18.12,47.64,47.64,0,0,1,.84,5.26A61.83,61.83,0,0,1,222.56,147.19Z"/><path class="cls-6" d="M352.64,150.49c-.56-.14-1.14-.26-1.77-.37a27.14,27.14,0,0,0,7.43-3.61,17.76,17.76,0,0,0,5.76-6.73,22,22,0,0,0,2.06-10c0-5.71-1.34-10.5-4-14.19a22.84,22.84,0,0,0-11-8.17,47.08,47.08,0,0,0-16.29-2.58H280.24v81H298.5V156.71h29.63a54.19,54.19,0,0,1,11.54.94c2.44.6,4.14,1.62,5,3a12.15,12.15,0,0,1,1.44,6.48v18.71h18.26V166.07c0-4.62-1-8.19-3-10.6A15.57,15.57,0,0,0,352.64,150.49ZM344.58,139c-2.2,2-5.48,3-9.75,3H298.5V120.83h36.33c4.3,0,7.6.87,9.81,2.58s3.22,4.1,3.22,7.38A10.47,10.47,0,0,1,344.58,139Z"/><path class="cls-6" d="M446.06,137.59a25.75,25.75,0,0,0-12.25-11.86c-5.41-2.58-12.25-3.89-20.33-3.89a52.06,52.06,0,0,0-20.85,3.87A32.14,32.14,0,0,0,378.58,137a30.76,30.76,0,0,0-5.05,17.72,29.93,29.93,0,0,0,5.18,17.67,32.38,32.38,0,0,0,14.36,11.16,54.09,54.09,0,0,0,20.89,3.8c7,0,13.05-1,18-2.88a29.62,29.62,0,0,0,11.82-8,23,23,0,0,0,5.41-11.62l.2-1.17H435a4.59,4.59,0,0,0-4.07,2.42.13.13,0,0,0,0,.05,12.74,12.74,0,0,1-5.16,4.4,26.19,26.19,0,0,1-12.16,2.52A28.09,28.09,0,0,1,402.24,171a18.25,18.25,0,0,1-7.41-5.67,16.67,16.67,0,0,1-3.1-6.78h57.62l0-1C449.81,149.53,448.7,142.82,446.06,137.59Zm-53.26,9.63a16.7,16.7,0,0,1,6.25-7.6c3.46-2.43,8.08-3.66,13.69-3.66s10.25,1.16,13.53,3.41a12,12,0,0,1,5.2,7.85Z"/><path class="cls-6" d="M458.71,185.88h17.9V98.77h-11.8a6.1,6.1,0,0,0-6.1,6.1Z"/><path class="cls-6" d="M540,126.75l-18,39.53-17.81-39.5a6.1,6.1,0,0,0-5.56-3.6H483.44l29.63,61.09-14,26h15a6.11,6.11,0,0,0,5.47-3.4l41.32-83.71H545.58A6.11,6.11,0,0,0,540,126.75Z"/><path class="cls-6" d="M548.62,185.88H563a6.1,6.1,0,0,0,6.1-6.1v-9.85H554.72a6.1,6.1,0,0,0-6.1,6.1Z"/><path class="cls-6" d="M577.33,112.53h14.36a6.1,6.1,0,0,0,6.1-6.1V96.58H583.43a6.1,6.1,0,0,0-6.1,6.09Z"/><path class="cls-6" d="M578.55,185.88h17.9v-62.7h-11.8a6.1,6.1,0,0,0-6.1,6.1Z"/><path class="cls-6" d="M680,136.75a31.22,31.22,0,0,0-13.92-11.16,52.1,52.1,0,0,0-20.47-3.75,53.36,53.36,0,0,0-20.6,3.73A31.31,31.31,0,0,0,611,136.75c-3.35,4.91-5.06,10.95-5.06,18s1.71,13,5.08,17.86a31.46,31.46,0,0,0,14,11,53,53,0,0,0,20.6,3.74,52.11,52.11,0,0,0,20.47-3.74,31.72,31.72,0,0,0,13.92-11c3.36-4.84,5.07-10.85,5.07-17.86S683.38,141.66,680,136.75ZM664.18,164.7a17.47,17.47,0,0,1-7.56,6.23,26.81,26.81,0,0,1-11,2.17,27.54,27.54,0,0,1-11.19-2.17,18.48,18.48,0,0,1-7.57-26.39,18.27,18.27,0,0,1,7.7-6.36A26.64,26.64,0,0,1,645.63,136a26.1,26.1,0,0,1,11,2.22,17.87,17.87,0,0,1,7.51,6.41,18.13,18.13,0,0,1,2.76,10.12A17.49,17.49,0,0,1,664.18,164.7Z"/></svg>